<svg xmlns="http://www.w3.org/2000/svg" xmlns:xlink="http://www.w3.org/1999/xlink" xmlns:lucid="lucid" width="1900" height="960"><g transform="translate(60 -40)" lucid:page-tab-id="0_0"><path d="M60 514.3c0 27.6-22.4 50-50 50s-50-22.4-50-50c0-27.62 22.4-50 50-50s50 22.38 50 50zM1620 514.3c0 27.6-22.4 50-50 50s-50-22.4-50-50c0-27.62 22.4-50 50-50s50 22.38 50 50zM364.86 367.38c2.84-1.7 7.44-1.7 10.28 0L614.86 511.2c2.84 1.7 2.84 4.47 0 6.18L375.14 661.2c-2.84 1.7-7.44 1.7-10.28 0L125.14 517.38c-2.84-1.7-2.84-4.47 0-6.18z" stroke="#5e5e5e" stroke-width="3" fill="#fff"/><use xlink:href="#a" transform="matrix(1,0,0,1,125,369.2913385826772) translate(120.67166666666672 127.15624999999999)"/><use xlink:href="#b" transform="matrix(1,0,0,1,125,369.2913385826772) translate(167.3938888888889 175.15625)"/><path d="M860 706c0-3.3 2.7-6 6-6h488c3.3 0 6 2.7 6 6v268c0 3.3-2.7 6-6 6H866c-3.3 0-6-2.7-6-6z" stroke="#5e5e5e" stroke-width="3" fill="#fff"/><use xlink:href="#c" transform="matrix(1,0,0,1,872,712) translate(0.5555555555556282 111.99999999999999)"/><use xlink:href="#d" transform="matrix(1,0,0,1,872,712) translate(155.77777777777783 111.99999999999999)"/><use xlink:href="#e" transform="matrix(1,0,0,1,872,712) translate(222.33333333333337 111.99999999999999)"/><use xlink:href="#f" transform="matrix(1,0,0,1,872,712) translate(162.61111111111114 159.99999999999997)"/><use xlink:href="#g" transform="matrix(1,0,0,1,872,712) translate(289.05555555555554 159.99999999999997)"/><path d="M62.5 514.3h40.73" stroke="#5e5e5e" stroke-width="2" fill="none"/><path d="M62.53 515.3h-1.08l.05-1-.03-1h1.06z" stroke="#5e5e5e" stroke-width=".05" fill="#5e5e5e"/><path d="M118.5 514.3l-14.27 4.63v-9.27z" stroke="#5e5e5e" stroke-width="2" fill="#5e5e5e"/><path d="M371 833.87l.7 2.64 1.8 1.8 2.63.7h123.22v2H375.87l-3.42-.92-2.53-2.53-.92-3.42V664.97h2zM840 839v2h-74.54v-2z" stroke="#5e5e5e" stroke-width=".05" fill="#5e5e5e"/><path d="M370.23 664l.77-.12v1.1h-2v-1.12z" fill="#5e5e5e"/><path d="M370.23 663.97l.8-.12v1.17h-2.05v-1.2zm-1.2 1h1.95v-1.06l-.75.12-1.2-.14z" stroke="#5e5e5e" stroke-width=".05" fill="#5e5e5e"/><path d="M855.26 840L841 844.64v-9.28z" fill="#5e5e5e"/><path d="M858.5 840l-18.5 6v-12zm-16.5 3.26l10.03-3.26-10.03-3.26z" stroke="#5e5e5e" stroke-width=".05" fill="#5e5e5e"/><use xlink:href="#h" transform="matrix(1,0,0,1,499.3480167346364,816) translate(0 31.99999999999999)"/><path d="M1362.5 840H1564c3.3 0 6-2.7 6-6V584.3" stroke="#5e5e5e" stroke-width="2" fill="none"/><path d="M1362.53 841h-1.03v-2h1.03z" stroke="#5e5e5e" stroke-width=".05" fill="#5e5e5e"/><path d="M1570 569.03l4.64 14.26h-9.28z" stroke="#5e5e5e" stroke-width="2" fill="#5e5e5e"/><path d="M371 363.6h-2V234h2zM483.23 211h-14.78v-2h14.78z" stroke="#5e5e5e" stroke-width=".05" fill="#5e5e5e"/><path d="M371 364.73l-1.23-.14-.77.1v-1.1h2z" fill="#5e5e5e"/><path d="M371.02 364.75l-1.25-.14-.8.13v-1.17h2.05zm-2-1.14v1.07l.75-.1 1.2.13v-1.1z" stroke="#5e5e5e" stroke-width=".05" fill="#5e5e5e"/><path d="M498.5 210l-14.27 4.64v-9.28z" fill="#5e5e5e"/><path d="M501.73 210l-18.5 6v-12zm-16.5 3.26l10.03-3.26-10.03-3.26z" stroke="#5e5e5e" stroke-width=".05" fill="#5e5e5e"/><use xlink:href="#i" transform="matrix(1,0,0,1,335.4502193265003,186) translate(0 32)"/><path d="M744.86 63.1c2.84-1.72 7.44-1.72 10.28 0l239.72 143.8c2.84 1.72 2.84 4.48 0 6.2L755.14 356.9c-2.84 1.72-7.44 1.72-10.28 0L505.14 213.1c-2.84-1.72-2.84-4.48 0-6.2z" stroke="#5e5e5e" stroke-width="3" fill="#fff"/><use xlink:href="#a" transform="matrix(1,0,0,1,505,65) translate(120.67166666666672 127.15624999999999)"/><use xlink:href="#j" transform="matrix(1,0,0,1,505,65) translate(151.44944444444445 175.15625)"/><use xlink:href="#k" transform="matrix(1,0,0,1,505,65) translate(316.3383333333333 175.15625)"/><path d="M1320 76c0-3.3 2.7-6 6-6h488c3.3 0 6 2.7 6 6v268c0 3.3-2.7 6-6 6h-488c-3.3 0-6-2.7-6-6z" stroke="#5e5e5e" stroke-width="3" fill="#fff"/><use xlink:href="#c" transform="matrix(1,0,0,1,1332,82) translate(0.5555555555556282 111.99999999999999)"/><use xlink:href="#d" transform="matrix(1,0,0,1,1332,82) translate(155.77777777777783 111.99999999999999)"/><use xlink:href="#e" transform="matrix(1,0,0,1,1332,82) translate(222.33333333333337 111.99999999999999)"/><use xlink:href="#f" transform="matrix(1,0,0,1,1332,82) translate(118.16666666666671 159.99999999999997)"/><use xlink:href="#l" transform="matrix(1,0,0,1,1332,82) translate(244.61111111111111 159.99999999999997)"/><use xlink:href="#m" transform="matrix(1,0,0,1,1332,82) translate(333.5 159.99999999999997)"/><path d="M1570 352.5v91.8" stroke="#5e5e5e" stroke-width="2" fill="none"/><path d="M1571 352.53h-2v-1.03h2z" stroke="#5e5e5e" stroke-width=".05" fill="#5e5e5e"/><path d="M1570 459.55l-4.64-14.26h9.28z" stroke="#5e5e5e" stroke-width="2" fill="#5e5e5e"/><path d="M1025.33 211h-26.06v-2h26.06zm274.67 0h-8.56v-2h8.56z" stroke="#5e5e5e" stroke-width=".05" fill="#5e5e5e"/><path d="M999.3 211h-1l-.07-2h1.06z" fill="#5e5e5e"/><path d="M999.32 211.03h-1.04l-.08-2.06h1.12zm-1.07-2l.08 1.94h.94v-1.94z" stroke="#5e5e5e" stroke-width=".05" fill="#5e5e5e"/><path d="M1315.26 210l-14.26 4.64v-9.28z" fill="#5e5e5e"/><path d="M1318.5 210l-18.5 6v-12zm-16.5 3.26l10.03-3.26-10.03-3.26z" stroke="#5e5e5e" stroke-width=".05" fill="#5e5e5e"/><use xlink:href="#h" transform="matrix(1,0,0,1,1025.3270110272617,186) translate(0 31.99999999999999)"/><path d="M860 380.3c0-3.32 2.7-6 6-6h488c3.3 0 6 2.68 6 6v268c0 3.3-2.7 6-6 6H866c-3.3 0-6-2.7-6-6z" stroke="#5e5e5e" stroke-width="3" fill="#fff"/><g><use xlink:href="#c" transform="matrix(1,0,0,1,872,386.2913385826772) translate(0.5555555555556282 111.99999999999999)"/><use xlink:href="#d" transform="matrix(1,0,0,1,872,386.2913385826772) translate(155.77777777777783 111.99999999999999)"/><use xlink:href="#e" transform="matrix(1,0,0,1,872,386.2913385826772) translate(222.33333333333337 111.99999999999999)"/><use xlink:href="#f" transform="matrix(1,0,0,1,872,386.2913385826772) translate(135.8888888888889 159.99999999999997)"/><use xlink:href="#n" transform="matrix(1,0,0,1,872,386.2913385826772) translate(262.3333333333333 159.99999999999997)"/></g><path d="M840 513.3v2h-84.13l-.22-.07h60.85v-1.94zm-89-46.07h-2V360.68h2z" stroke="#5e5e5e" stroke-width=".05" fill="#5e5e5e"/><path d="M750.23 359.7l.77-.1v1.1h-2v-1.13z" fill="#5e5e5e"/><path d="M750.23 359.68l.8-.12v1.17h-2.05v-1.2zm-1.2 1h1.95v-1.06l-.75.1-1.2-.13z" stroke="#5e5e5e" stroke-width=".05" fill="#5e5e5e"/><path d="M855.26 514.3L841 518.92v-9.27z" fill="#5e5e5e"/><path d="M858.5 514.3l-18.5 6v-12.02zm-16.5 3.25l10.03-3.26-10.03-3.27z" stroke="#5e5e5e" stroke-width=".05" fill="#5e5e5e"/><g><use xlink:href="#i" transform="matrix(1,0,0,1,683.5,467.2338822929208) translate(0 32)"/></g><path d="M1362.5 514.3H1500" stroke="#5e5e5e" stroke-width="2" fill="none"/><path d="M1362.53 515.3h-1.03v-2h1.03z" stroke="#5e5e5e" stroke-width=".05" fill="#5e5e5e"/><path d="M1515.26 514.3l-14.26 4.63v-9.27z" stroke="#5e5e5e" stroke-width="2" fill="#5e5e5e"/><defs><path fill="#333" d="M24 0v-248h195v40H76v63h132v40H76v65h150V0H24" id="o"/><path fill="#333" d="M182 0l-62-99L58 0H3l86-130-79-118h55l55 88 55-88h55l-75 118L237 0h-55" id="p"/><path fill="#333" d="M24-248c93 1 206-16 204 79-1 75-69 88-152 82V0H24v-248zm52 121c47 0 100 7 100-41 0-47-54-39-100-39v80" id="q"/><path fill="#333" d="M240-174c0 40-23 61-54 70L253 0h-59l-57-94H76V0H24v-248c93 4 217-23 216 74zM76-134c48-2 112 12 112-38 0-48-66-32-112-35v73" id="r"/><path fill="#333" d="M169-182c-1-43-94-46-97-3 18 66 151 10 154 114 3 95-165 93-204 36-6-8-10-19-12-30l50-8c3 46 112 56 116 5-17-69-150-10-154-114-4-87 153-88 188-35 5 8 8 18 10 28" id="s"/><path fill="#333" d="M101-320c28 0 65 44 74 0h23c0 29-10 51-39 51-28-1-66-45-74 0H61c2-28 9-52 40-51zM199 0l-22-63H83L61 0H9l90-248h61L250 0h-51zm-33-102l-36-108c-10 38-24 72-36 108h72" id="t"/><path fill="#333" d="M140-251c80 0 125 45 125 126S219 4 139 4C58 4 15-44 15-125s44-126 125-126zm-1 214c52 0 73-35 73-88 0-50-21-86-72-86-52 0-73 35-73 86s22 88 72 88" id="u"/><g id="a"><use transform="matrix(0.11111111111111108,0,0,0.11111111111111108,0,0)" xlink:href="#o"/><use transform="matrix(0.11111111111111108,0,0,0.11111111111111108,26.666666666666657,0)" xlink:href="#p"/><use transform="matrix(0.11111111111111108,0,0,0.11111111111111108,53.333333333333314,0)" xlink:href="#q"/><use transform="matrix(0.11111111111111108,0,0,0.11111111111111108,79.99999999999997,0)" xlink:href="#r"/><use transform="matrix(0.11111111111111108,0,0,0.11111111111111108,108.77777777777774,0)" xlink:href="#o"/><use transform="matrix(0.11111111111111108,0,0,0.11111111111111108,135.4444444444444,0)" xlink:href="#s"/><use transform="matrix(0.11111111111111108,0,0,0.11111111111111108,162.11111111111106,0)" xlink:href="#s"/><use transform="matrix(0.11111111111111108,0,0,0.11111111111111108,188.77777777777771,0)" xlink:href="#t"/><use transform="matrix(0.11111111111111108,0,0,0.11111111111111108,217.5555555555555,0)" xlink:href="#u"/></g><path fill="#333" d="M24 0v-248h52v208h133V0H24" id="v"/><path fill="#333" d="M110-269v-5l44-45h46v8l-60 42h-30zm30 18c80 0 125 45 125 126S219 4 139 4C58 4 15-44 15-125s44-126 125-126zm-1 214c52 0 73-35 73-88 0-50-21-86-72-86-52 0-73 35-73 86s22 88 72 88" id="w"/><path fill="#333" d="M67-125c0 54 23 88 75 88 28 0 53-7 68-21v-34h-60v-39h108v91C232-14 192 4 140 4 58 4 20-42 15-125 8-236 126-280 215-234c19 10 29 26 37 47l-47 15c-11-23-29-39-63-39-53 1-75 33-75 86" id="x"/><path fill="#333" d="M24 0v-248h52V0H24" id="y"/><path fill="#333" d="M67-125c0 53 21 87 73 88 37 1 54-22 65-47l45 17C233-25 199 4 140 4 58 4 20-42 15-125 8-235 124-281 211-232c18 10 29 29 36 50l-46 12c-8-25-30-41-62-41-52 0-71 34-72 86" id="z"/><path fill="#333" d="M199 0l-22-63H83L61 0H9l90-248h61L250 0h-51zm-33-102l-36-108c-10 38-24 72-36 108h72" id="A"/><g id="b"><use transform="matrix(0.11111111111111108,0,0,0.11111111111111108,0,0)" xlink:href="#v"/><use transform="matrix(0.11111111111111108,0,0,0.11111111111111108,24.333333333333325,0)" xlink:href="#w"/><use transform="matrix(0.11111111111111108,0,0,0.11111111111111108,55.44444444444443,0)" xlink:href="#x"/><use transform="matrix(0.11111111111111108,0,0,0.11111111111111108,86.55555555555553,0)" xlink:href="#y"/><use transform="matrix(0.11111111111111108,0,0,0.11111111111111108,97.66666666666663,0)" xlink:href="#z"/><use transform="matrix(0.11111111111111108,0,0,0.11111111111111108,126.4444444444444,0)" xlink:href="#A"/></g><path fill="#333" d="M182-130c37 4 62 22 62 59C244 23 116-4 24 0v-248c84 5 203-23 205 63 0 31-19 50-47 55zM76-148c40-3 101 13 101-30 0-44-60-28-101-31v61zm0 110c48-3 116 14 116-37 0-48-69-32-116-35v72" id="B"/><g id="c"><use transform="matrix(0.11111111111111108,0,0,0.11111111111111108,0,0)" xlink:href="#B"/><use transform="matrix(0.11111111111111108,0,0,0.11111111111111108,28.777777777777768,0)" xlink:href="#v"/><use transform="matrix(0.11111111111111108,0,0,0.11111111111111108,53.11111111111109,0)" xlink:href="#u"/><use transform="matrix(0.11111111111111108,0,0,0.11111111111111108,84.2222222222222,0)" xlink:href="#z"/><use transform="matrix(0.11111111111111108,0,0,0.11111111111111108,112.99999999999997,0)" xlink:href="#u"/></g><path fill="#333" d="M24-248c120-7 223 5 221 122C244-46 201 0 124 0H24v-248zM76-40c74 7 117-18 117-86 0-67-45-88-117-82v168" id="C"/><g id="d"><use transform="matrix(0.11111111111111108,0,0,0.11111111111111108,0,0)" xlink:href="#C"/><use transform="matrix(0.11111111111111108,0,0,0.11111111111111108,28.777777777777768,0)" xlink:href="#o"/></g><g id="e"><use transform="matrix(0.11111111111111108,0,0,0.11111111111111108,0,0)" xlink:href="#q"/><use transform="matrix(0.11111111111111108,0,0,0.11111111111111108,26.666666666666657,0)" xlink:href="#r"/><use transform="matrix(0.11111111111111108,0,0,0.11111111111111108,55.44444444444443,0)" xlink:href="#u"/><use transform="matrix(0.11111111111111108,0,0,0.11111111111111108,86.55555555555553,0)" xlink:href="#z"/><use transform="matrix(0.11111111111111108,0,0,0.11111111111111108,115.3333333333333,0)" xlink:href="#o"/><use transform="matrix(0.11111111111111108,0,0,0.11111111111111108,141.99999999999994,0)" xlink:href="#s"/><use transform="matrix(0.11111111111111108,0,0,0.11111111111111108,168.6666666666666,0)" xlink:href="#s"/><use transform="matrix(0.11111111111111108,0,0,0.11111111111111108,195.33333333333326,0)" xlink:href="#u"/><use transform="matrix(0.11111111111111108,0,0,0.11111111111111108,226.44444444444434,0)" xlink:href="#s"/></g><g id="f"><use transform="matrix(0.11111111111111108,0,0,0.11111111111111108,0,0)" xlink:href="#z"/><use transform="matrix(0.11111111111111108,0,0,0.11111111111111108,28.777777777777768,0)" xlink:href="#A"/><use transform="matrix(0.11111111111111108,0,0,0.11111111111111108,57.555555555555536,0)" xlink:href="#s"/><use transform="matrix(0.11111111111111108,0,0,0.11111111111111108,84.2222222222222,0)" xlink:href="#u"/></g><path fill="#333" d="M50-224l7-37h49l-7 37H50zM6 0l37-190h49L55 0H6" id="D"/><path fill="#333" d="M93-157L62 0H13l31-157H16l6-33h28c2-54 40-81 100-68l-6 32c-29-8-44 9-45 36h38l-7 33H93" id="E"/><g id="g"><use transform="matrix(0.11111111111111108,0,0,0.11111111111111108,0,0)" xlink:href="#D"/><use transform="matrix(0.11111111111111108,0,0,0.11111111111111108,11.111111111111107,0)" xlink:href="#E"/></g><path fill="#008a0e" d="M147 0H94L2-248h55l64 206c17-72 42-137 63-206h54" id="F"/><path fill="#008a0e" d="M24 0v-248h195v40H76v63h132v40H76v65h150V0H24" id="G"/><path fill="#008a0e" d="M240-174c0 40-23 61-54 70L253 0h-59l-57-94H76V0H24v-248c93 4 217-23 216 74zM76-134c48-2 112 12 112-38 0-48-66-32-112-35v73" id="H"/><path fill="#008a0e" d="M24-248c120-7 223 5 221 122C244-46 201 0 124 0H24v-248zM76-40c74 7 117-18 117-86 0-67-45-88-117-82v168" id="I"/><path fill="#008a0e" d="M199 0l-22-63H83L61 0H9l90-248h61L250 0h-51zm-33-102l-36-108c-10 38-24 72-36 108h72" id="J"/><path fill="#008a0e" d="M24 0v-248h52V0H24" id="K"/><path fill="#008a0e" d="M140-251c80 0 125 45 125 126S219 4 139 4C58 4 15-44 15-125s44-126 125-126zm-1 214c52 0 73-35 73-88 0-50-21-86-72-86-52 0-73 35-73 86s22 88 72 88" id="L"/><g id="h"><use transform="matrix(0.11111111111111108,0,0,0.11111111111111108,0,0)" xlink:href="#F"/><use transform="matrix(0.11111111111111108,0,0,0.11111111111111108,26.666666666666657,0)" xlink:href="#G"/><use transform="matrix(0.11111111111111108,0,0,0.11111111111111108,53.333333333333314,0)" xlink:href="#H"/><use transform="matrix(0.11111111111111108,0,0,0.11111111111111108,82.11111111111109,0)" xlink:href="#I"/><use transform="matrix(0.11111111111111108,0,0,0.11111111111111108,110.88888888888886,0)" xlink:href="#J"/><use transform="matrix(0.11111111111111108,0,0,0.11111111111111108,139.66666666666663,0)" xlink:href="#I"/><use transform="matrix(0.11111111111111108,0,0,0.11111111111111108,168.4444444444444,0)" xlink:href="#G"/><use transform="matrix(0.11111111111111108,0,0,0.11111111111111108,195.11111111111106,0)" xlink:href="#K"/><use transform="matrix(0.11111111111111108,0,0,0.11111111111111108,206.22222222222217,0)" xlink:href="#H"/><use transform="matrix(0.11111111111111108,0,0,0.11111111111111108,234.99999999999991,0)" xlink:href="#L"/></g><path fill="#e81313" d="M76-208v77h127v40H76V0H24v-248h183v40H76" id="M"/><path fill="#e81313" d="M199 0l-22-63H83L61 0H9l90-248h61L250 0h-51zm-33-102l-36-108c-10 38-24 72-36 108h72" id="N"/><path fill="#e81313" d="M24 0v-248h52v208h133V0H24" id="O"/><path fill="#e81313" d="M169-182c-1-43-94-46-97-3 18 66 151 10 154 114 3 95-165 93-204 36-6-8-10-19-12-30l50-8c3 46 112 56 116 5-17-69-150-10-154-114-4-87 153-88 188-35 5 8 8 18 10 28" id="P"/><path fill="#e81313" d="M140-251c80 0 125 45 125 126S219 4 139 4C58 4 15-44 15-125s44-126 125-126zm-1 214c52 0 73-35 73-88 0-50-21-86-72-86-52 0-73 35-73 86s22 88 72 88" id="Q"/><g id="i"><use transform="matrix(0.1111111111111111,0,0,0.1111111111111111,0,0)" xlink:href="#M"/><use transform="matrix(0.1111111111111111,0,0,0.1111111111111111,22.11111111111111,0)" xlink:href="#N"/><use transform="matrix(0.1111111111111111,0,0,0.1111111111111111,50.888888888888886,0)" xlink:href="#O"/><use transform="matrix(0.1111111111111111,0,0,0.1111111111111111,75.22222222222221,0)" xlink:href="#P"/><use transform="matrix(0.1111111111111111,0,0,0.1111111111111111,101.88888888888889,0)" xlink:href="#Q"/></g><g id="j"><use transform="matrix(0.11111111111111108,0,0,0.11111111111111108,0,0)" xlink:href="#v"/><use transform="matrix(0.11111111111111108,0,0,0.11111111111111108,24.333333333333325,0)" xlink:href="#w"/><use transform="matrix(0.11111111111111108,0,0,0.11111111111111108,55.44444444444443,0)" xlink:href="#x"/><use transform="matrix(0.11111111111111108,0,0,0.11111111111111108,86.55555555555553,0)" xlink:href="#y"/><use transform="matrix(0.11111111111111108,0,0,0.11111111111111108,97.66666666666663,0)" xlink:href="#z"/><use transform="matrix(0.11111111111111108,0,0,0.11111111111111108,126.4444444444444,0)" xlink:href="#A"/></g><path fill="#333" d="M182-182c0 78-84 86-111 141h115V0H12c-6-101 99-100 120-180 1-22-12-31-33-32-23 0-32 14-35 34l-49-3c5-45 32-70 84-70 51 0 83 22 83 69" id="R"/><use transform="matrix(0.11111111111111108,0,0,0.11111111111111108,0,0)" xlink:href="#R" id="k"/><path fill="#333" d="M114-194c63-2 87 48 72 110H63c-3 28 1 55 31 54 21-1 32-13 37-29l44 13C160-14 137 4 91 4 41 4 11-22 11-73c0-71 33-119 103-121zm30 77c14-47-50-61-67-22-3 6-6 13-8 22h75" id="S"/><path fill="#333" d="M6 0l51-261h49L55 0H6" id="T"/><path fill="#333" d="M144-137c-1-29-70-35-71-2 16 41 103 10 103 80C176 9 79 16 32-9 18-17 9-31 4-48l44-6c3 32 80 36 82 1-15-42-103-11-103-82 0-77 157-79 161-8" id="U"/><g id="l"><use transform="matrix(0.11111111111111108,0,0,0.11111111111111108,0,0)" xlink:href="#S"/><use transform="matrix(0.11111111111111108,0,0,0.11111111111111108,22.222222222222214,0)" xlink:href="#T"/><use transform="matrix(0.11111111111111108,0,0,0.11111111111111108,33.33333333333332,0)" xlink:href="#U"/><use transform="matrix(0.11111111111111108,0,0,0.11111111111111108,55.555555555555536,0)" xlink:href="#S"/></g><g id="m"><use transform="matrix(0.11111111111111108,0,0,0.11111111111111108,0,0)" xlink:href="#D"/><use transform="matrix(0.11111111111111108,0,0,0.11111111111111108,11.111111111111107,0)" xlink:href="#E"/></g><g id="n"><use transform="matrix(0.11111111111111108,0,0,0.11111111111111108,0,0)" xlink:href="#S"/><use transform="matrix(0.11111111111111108,0,0,0.11111111111111108,22.222222222222214,0)" xlink:href="#T"/><use transform="matrix(0.11111111111111108,0,0,0.11111111111111108,33.33333333333332,0)" xlink:href="#U"/><use transform="matrix(0.11111111111111108,0,0,0.11111111111111108,55.555555555555536,0)" xlink:href="#S"/></g></defs></g></svg>
