<svg xmlns="http://www.w3.org/2000/svg" xmlns:xlink="http://www.w3.org/1999/xlink" xmlns:lucid="lucid" width="2270.87" height="705"><g transform="translate(380 -60)" lucid:page-tab-id="0_0"><path d="M-260 554.3c0 27.6-22.4 50-50 50s-50-22.4-50-50c0-27.62 22.4-50 50-50s50 22.38 50 50zM1870.87 554.3c0 27.6-22.4 50-50 50-27.62 0-50-22.4-50-50 0-27.62 22.38-50 50-50 27.6 0 50 22.38 50 50zM704.86 407.38a10 10 0 0 1 10.28 0L954.86 551.2a3.6 3.6 0 0 1 0 6.18L715.14 701.2a10 10 0 0 1-10.28 0L465.14 557.38a3.6 3.6 0 0 1 0-6.18z" stroke="#5e5e5e" stroke-width="3" fill="#fff"/><use xlink:href="#a" transform="matrix(1,0,0,1,465,409.2913385826772) translate(95.78277777777782 154.34375)"/><use xlink:href="#b" transform="matrix(1,0,0,1,465,409.2913385826772) translate(188.11611111111114 154.34375)"/><use xlink:href="#c" transform="matrix(1,0,0,1,465,409.2913385826772) translate(276.8938888888889 154.34375)"/><path d="M1100 86a6 6 0 0 1 6-6h488a6 6 0 0 1 6 6v268a6 6 0 0 1-6 6h-488a6 6 0 0 1-6-6z" stroke="#5e5e5e" stroke-width="3" fill="#fff"/><use xlink:href="#d" transform="matrix(1,0,0,1,1112,92) translate(0.5555555555556282 136)"/><use xlink:href="#e" transform="matrix(1,0,0,1,1112,92) translate(155.77777777777783 136)"/><use xlink:href="#f" transform="matrix(1,0,0,1,1112,92) translate(222.33333333333337 136)"/><path d="M1750.86 555.3l-45.68.07-.72.17-.73.3-.67.4-.6.52-.5.6-.4.66-.3.73-.2.76-.06.83-.07 164.73-.27 1.1-.42 1.02-.57.94-.72.83-.83.72-.94.57-1.02.42-1.06.26-1.06.08-392.1-.03v-2l392.02.03.82-.06.76-.2.73-.3.67-.4.6-.5.5-.6.4-.67.3-.73.2-.72.06-164.57.08-1.05.26-1.07.42-1.02.57-.92.72-.84.83-.7.94-.6 1.02-.4 1.1-.27 45.92-.08zM711 723.95l.06.82.2.76.3.73.4.67.5.6.6.5.67.4.73.3.72.2 453.76.02v2l-454-.03-1.1-.27-1.02-.42-.94-.57-.83-.72-.72-.83-.57-.94-.42-1.02-.26-1.06-.08-1.06v-18.9h2z" stroke="#5e5e5e" stroke-width=".05" fill="#5e5e5e"/><path d="M710 704.13l1-.05v1.08h-2v-1.08z" fill="#5e5e5e"/><path d="M710 704.1l1.02-.05v1.13H709v-1.13zm-.98 1.03H711v-1.03l-.98.06-.98-.06z" stroke="#5e5e5e" stroke-width=".05" fill="#5e5e5e"/><path d="M1766.13 554.3l-14.27 4.63v-9.27z" fill="#5e5e5e"/><path d="M1769.37 554.3l-18.5 6v-12.02zm-16.5 3.25l10.02-3.26-10.04-3.27z" stroke="#5e5e5e" stroke-width=".05" fill="#5e5e5e"/><use xlink:href="#g" transform="matrix(1,0,0,1,1168.9417385634513,706) translate(0 31.99999999999999)"/><path d="M1060.7 555.3H959.1v-2h101.6zM1351 379.96l-.07 169.38-.27 1.1-.42 1.02-.57.94-.72.84-.83.72-.94.57-1.02.42-1.06.26-1.06.1h-17.23v-2h17.16l.82-.07.76-.2.73-.3.67-.4.6-.5.5-.6.4-.67.3-.72.2-.73.06-169.14z" stroke="#5e5e5e" stroke-width=".05" fill="#5e5e5e"/><path d="M959.14 555.3H958l.1-1-.1-1h1.14z" fill="#5e5e5e"/><path d="M959.16 555.32h-1.18l.1-1.03-.1-1.03h1.18zm-1.12-2l.1.97-.1.97h1.07v-1.95z" stroke="#5e5e5e" stroke-width=".05" fill="#5e5e5e"/><path d="M1354.64 378.96h-9.28l4.64-14.26z" fill="#5e5e5e"/><path d="M1356 379.96h-12l6-18.5zm-9.26-2h6.52l-3.26-10.02z" stroke="#5e5e5e" stroke-width=".05" fill="#5e5e5e"/><use xlink:href="#h" transform="matrix(1,0,0,1,1060.6975663741655,530.2913385826772) translate(0 31.99999999999999)"/><path d="M-257.5 554.3h117.53" stroke="#5e5e5e" stroke-width="2" fill="none"/><path d="M-257.47 555.3h-1.08l.05-1-.03-1h1.06z" stroke="#5e5e5e" stroke-width=".05" fill="#5e5e5e"/><path d="M-124.7 554.3l-14.27 4.63v-9.27z" stroke="#5e5e5e" stroke-width="2" fill="#5e5e5e"/><path d="M382.46 554.3h60.93" stroke="#5e5e5e" stroke-width="2" fill="none"/><path d="M382.5 555.3h-1.04v-2h1.03z" stroke="#5e5e5e" stroke-width=".05" fill="#5e5e5e"/><path d="M458.65 554.3l-14.26 4.63v-9.27z" stroke="#5e5e5e" stroke-width="2" fill="#5e5e5e"/><path d="M-120 420.3a6 6 0 0 1 6-6h488a6 6 0 0 1 6 6v268a6 6 0 0 1-6 6h-488a6 6 0 0 1-6-6z" stroke="#5e5e5e" stroke-width="3" fill="#fff"/><use xlink:href="#a" transform="matrix(1,0,0,1,-108,426.2913385826772) translate(102.61111111111114 136)"/><use xlink:href="#i" transform="matrix(1,0,0,1,-108,426.2913385826772) translate(194.94444444444446 136)"/><use xlink:href="#j" transform="matrix(1,0,0,1,-108,426.2913385826772) translate(229.38888888888889 136)"/><path d="M456.44 86a6 6 0 0 1 6-6h488a6 6 0 0 1 6 6v268a6 6 0 0 1-6 6h-488a6 6 0 0 1-6-6z" stroke="#5e5e5e" stroke-width="3" fill="#fff"/><use xlink:href="#a" transform="matrix(1,0,0,1,468.4422495251091,92) translate(76.88888888888894 136)"/><use xlink:href="#i" transform="matrix(1,0,0,1,468.4422495251091,92) translate(169.22222222222226 136)"/><use xlink:href="#k" transform="matrix(1,0,0,1,468.4422495251091,92) translate(203.66666666666669 136)"/><use xlink:href="#l" transform="matrix(1,0,0,1,468.4422495251091,92) translate(296 136)"/><use xlink:href="#m" transform="matrix(1,0,0,1,468.4422495251091,92) translate(330.44444444444446 136)"/><path d="M1097.54 220H976.42" stroke="#5e5e5e" stroke-width="2" fill="none"/><path d="M1098.54 221h-1.03v-2h1.04z" stroke="#5e5e5e" stroke-width=".05" fill="#5e5e5e"/><path d="M961.14 220l14.27-4.64v9.28z" stroke="#5e5e5e" stroke-width="2" fill="#5e5e5e"/><path d="M706.44 362.46v24.06" stroke="#5e5e5e" stroke-width="2" fill="none"/><path d="M707.44 362.5h-2v-1.04h2z" stroke="#5e5e5e" stroke-width=".05" fill="#5e5e5e"/><path d="M706.44 401.78l-4.63-14.26h9.28z" stroke="#5e5e5e" stroke-width="2" fill="#5e5e5e"/><defs><path fill="#333" d="M147 0H94L2-248h55l64 206c17-72 42-137 63-206h54" id="n"/><path fill="#333" d="M199 0l-22-63H83L61 0H9l90-248h61L250 0h-51zm-33-102l-36-108c-10 38-24 72-36 108h72" id="o"/><path fill="#333" d="M240-174c0 40-23 61-54 70L253 0h-59l-57-94H76V0H24v-248c93 4 217-23 216 74zM76-134c48-2 112 12 112-38 0-48-66-32-112-35v73" id="p"/><g id="a"><use transform="matrix(0.11111111111111108,0,0,0.11111111111111108,0,0)" xlink:href="#n"/><use transform="matrix(0.11111111111111108,0,0,0.11111111111111108,23.666666666666657,0)" xlink:href="#o"/><use transform="matrix(0.11111111111111108,0,0,0.11111111111111108,52.44444444444443,0)" xlink:href="#p"/></g><path fill="#333" d="M24 0v-54h51V0H24" id="q"/><path fill="#333" d="M175 0L67-191c6 58 2 128 3 191H24v-248h59L193-55c-6-58-2-129-3-193h46V0h-61" id="r"/><path fill="#333" d="M24 0v-248h195v40H76v63h132v40H76v65h150V0H24" id="s"/><g id="b"><use transform="matrix(0.11111111111111108,0,0,0.11111111111111108,0,0)" xlink:href="#q"/><use transform="matrix(0.11111111111111108,0,0,0.11111111111111108,11.111111111111107,0)" xlink:href="#r"/><use transform="matrix(0.11111111111111108,0,0,0.11111111111111108,39.88888888888887,0)" xlink:href="#s"/><use transform="matrix(0.11111111111111108,0,0,0.11111111111111108,66.55555555555553,0)" xlink:href="#q"/></g><path fill="#333" d="M76-208v77h127v40H76V0H24v-248h183v40H76" id="t"/><path fill="#333" d="M24 0v-248h52V0H24" id="u"/><path fill="#333" d="M24 0v-248h52v208h133V0H24" id="v"/><g id="c"><use transform="matrix(0.11111111111111108,0,0,0.11111111111111108,0,0)" xlink:href="#t"/><use transform="matrix(0.11111111111111108,0,0,0.11111111111111108,24.333333333333325,0)" xlink:href="#u"/><use transform="matrix(0.11111111111111108,0,0,0.11111111111111108,35.44444444444443,0)" xlink:href="#r"/><use transform="matrix(0.11111111111111108,0,0,0.11111111111111108,64.2222222222222,0)" xlink:href="#o"/><use transform="matrix(0.11111111111111108,0,0,0.11111111111111108,92.99999999999997,0)" xlink:href="#v"/></g><path fill="#333" d="M182-130c37 4 62 22 62 59C244 23 116-4 24 0v-248c84 5 203-23 205 63 0 31-19 50-47 55zM76-148c40-3 101 13 101-30 0-44-60-28-101-31v61zm0 110c48-3 116 14 116-37 0-48-69-32-116-35v72" id="w"/><path fill="#333" d="M140-251c80 0 125 45 125 126S219 4 139 4C58 4 15-44 15-125s44-126 125-126zm-1 214c52 0 73-35 73-88 0-50-21-86-72-86-52 0-73 35-73 86s22 88 72 88" id="x"/><path fill="#333" d="M67-125c0 53 21 87 73 88 37 1 54-22 65-47l45 17C233-25 199 4 140 4 58 4 20-42 15-125 8-235 124-281 211-232c18 10 29 29 36 50l-46 12c-8-25-30-41-62-41-52 0-71 34-72 86" id="y"/><g id="d"><use transform="matrix(0.11111111111111108,0,0,0.11111111111111108,0,0)" xlink:href="#w"/><use transform="matrix(0.11111111111111108,0,0,0.11111111111111108,28.777777777777768,0)" xlink:href="#v"/><use transform="matrix(0.11111111111111108,0,0,0.11111111111111108,53.11111111111109,0)" xlink:href="#x"/><use transform="matrix(0.11111111111111108,0,0,0.11111111111111108,84.2222222222222,0)" xlink:href="#y"/><use transform="matrix(0.11111111111111108,0,0,0.11111111111111108,112.99999999999997,0)" xlink:href="#x"/></g><path fill="#333" d="M24-248c120-7 223 5 221 122C244-46 201 0 124 0H24v-248zM76-40c74 7 117-18 117-86 0-67-45-88-117-82v168" id="z"/><g id="e"><use transform="matrix(0.11111111111111108,0,0,0.11111111111111108,0,0)" xlink:href="#z"/><use transform="matrix(0.11111111111111108,0,0,0.11111111111111108,28.777777777777768,0)" xlink:href="#s"/></g><path fill="#333" d="M24-248c93 1 206-16 204 79-1 75-69 88-152 82V0H24v-248zm52 121c47 0 100 7 100-41 0-47-54-39-100-39v80" id="A"/><path fill="#333" d="M169-182c-1-43-94-46-97-3 18 66 151 10 154 114 3 95-165 93-204 36-6-8-10-19-12-30l50-8c3 46 112 56 116 5-17-69-150-10-154-114-4-87 153-88 188-35 5 8 8 18 10 28" id="B"/><g id="f"><use transform="matrix(0.11111111111111108,0,0,0.11111111111111108,0,0)" xlink:href="#A"/><use transform="matrix(0.11111111111111108,0,0,0.11111111111111108,26.666666666666657,0)" xlink:href="#p"/><use transform="matrix(0.11111111111111108,0,0,0.11111111111111108,55.44444444444443,0)" xlink:href="#x"/><use transform="matrix(0.11111111111111108,0,0,0.11111111111111108,86.55555555555553,0)" xlink:href="#y"/><use transform="matrix(0.11111111111111108,0,0,0.11111111111111108,115.3333333333333,0)" xlink:href="#s"/><use transform="matrix(0.11111111111111108,0,0,0.11111111111111108,141.99999999999994,0)" xlink:href="#B"/><use transform="matrix(0.11111111111111108,0,0,0.11111111111111108,168.6666666666666,0)" xlink:href="#B"/><use transform="matrix(0.11111111111111108,0,0,0.11111111111111108,195.33333333333326,0)" xlink:href="#x"/><use transform="matrix(0.11111111111111108,0,0,0.11111111111111108,226.44444444444434,0)" xlink:href="#B"/></g><path fill="#e81313" d="M76-208v77h127v40H76V0H24v-248h183v40H76" id="C"/><path fill="#e81313" d="M199 0l-22-63H83L61 0H9l90-248h61L250 0h-51zm-33-102l-36-108c-10 38-24 72-36 108h72" id="D"/><path fill="#e81313" d="M24 0v-248h52v208h133V0H24" id="E"/><path fill="#e81313" d="M169-182c-1-43-94-46-97-3 18 66 151 10 154 114 3 95-165 93-204 36-6-8-10-19-12-30l50-8c3 46 112 56 116 5-17-69-150-10-154-114-4-87 153-88 188-35 5 8 8 18 10 28" id="F"/><path fill="#e81313" d="M140-251c80 0 125 45 125 126S219 4 139 4C58 4 15-44 15-125s44-126 125-126zm-1 214c52 0 73-35 73-88 0-50-21-86-72-86-52 0-73 35-73 86s22 88 72 88" id="G"/><g id="g"><use transform="matrix(0.11111111111111108,0,0,0.11111111111111108,0,0)" xlink:href="#C"/><use transform="matrix(0.11111111111111108,0,0,0.11111111111111108,22.111111111111104,0)" xlink:href="#D"/><use transform="matrix(0.11111111111111108,0,0,0.11111111111111108,50.88888888888887,0)" xlink:href="#E"/><use transform="matrix(0.11111111111111108,0,0,0.11111111111111108,75.2222222222222,0)" xlink:href="#F"/><use transform="matrix(0.11111111111111108,0,0,0.11111111111111108,101.88888888888886,0)" xlink:href="#G"/></g><path fill="#008a0e" d="M147 0H94L2-248h55l64 206c17-72 42-137 63-206h54" id="H"/><path fill="#008a0e" d="M24 0v-248h195v40H76v63h132v40H76v65h150V0H24" id="I"/><path fill="#008a0e" d="M240-174c0 40-23 61-54 70L253 0h-59l-57-94H76V0H24v-248c93 4 217-23 216 74zM76-134c48-2 112 12 112-38 0-48-66-32-112-35v73" id="J"/><path fill="#008a0e" d="M24-248c120-7 223 5 221 122C244-46 201 0 124 0H24v-248zM76-40c74 7 117-18 117-86 0-67-45-88-117-82v168" id="K"/><path fill="#008a0e" d="M199 0l-22-63H83L61 0H9l90-248h61L250 0h-51zm-33-102l-36-108c-10 38-24 72-36 108h72" id="L"/><path fill="#008a0e" d="M24 0v-248h52V0H24" id="M"/><path fill="#008a0e" d="M140-251c80 0 125 45 125 126S219 4 139 4C58 4 15-44 15-125s44-126 125-126zm-1 214c52 0 73-35 73-88 0-50-21-86-72-86-52 0-73 35-73 86s22 88 72 88" id="N"/><g id="h"><use transform="matrix(0.11111111111111108,0,0,0.11111111111111108,0,0)" xlink:href="#H"/><use transform="matrix(0.11111111111111108,0,0,0.11111111111111108,26.666666666666657,0)" xlink:href="#I"/><use transform="matrix(0.11111111111111108,0,0,0.11111111111111108,53.333333333333314,0)" xlink:href="#J"/><use transform="matrix(0.11111111111111108,0,0,0.11111111111111108,82.11111111111109,0)" xlink:href="#K"/><use transform="matrix(0.11111111111111108,0,0,0.11111111111111108,110.88888888888886,0)" xlink:href="#L"/><use transform="matrix(0.11111111111111108,0,0,0.11111111111111108,139.66666666666663,0)" xlink:href="#K"/><use transform="matrix(0.11111111111111108,0,0,0.11111111111111108,168.4444444444444,0)" xlink:href="#I"/><use transform="matrix(0.11111111111111108,0,0,0.11111111111111108,195.11111111111106,0)" xlink:href="#M"/><use transform="matrix(0.11111111111111108,0,0,0.11111111111111108,206.22222222222217,0)" xlink:href="#J"/><use transform="matrix(0.11111111111111108,0,0,0.11111111111111108,234.99999999999991,0)" xlink:href="#N"/></g><path fill="#333" d="M15-148v-39h180v39H15zm0 97v-39h180v39H15" id="O"/><use transform="matrix(0.11111111111111108,0,0,0.11111111111111108,0,0)" xlink:href="#O" id="i"/><g id="j"><use transform="matrix(0.11111111111111108,0,0,0.11111111111111108,0,0)" xlink:href="#u"/><use transform="matrix(0.11111111111111108,0,0,0.11111111111111108,11.111111111111107,0)" xlink:href="#r"/><use transform="matrix(0.11111111111111108,0,0,0.11111111111111108,39.88888888888887,0)" xlink:href="#u"/><use transform="matrix(0.11111111111111108,0,0,0.11111111111111108,50.99999999999998,0)" xlink:href="#y"/><use transform="matrix(0.11111111111111108,0,0,0.11111111111111108,79.77777777777774,0)" xlink:href="#u"/><use transform="matrix(0.11111111111111108,0,0,0.11111111111111108,90.88888888888886,0)" xlink:href="#o"/><use transform="matrix(0.11111111111111108,0,0,0.11111111111111108,119.66666666666663,0)" xlink:href="#v"/></g><g id="k"><use transform="matrix(0.11111111111111108,0,0,0.11111111111111108,0,0)" xlink:href="#n"/><use transform="matrix(0.11111111111111108,0,0,0.11111111111111108,23.666666666666657,0)" xlink:href="#o"/><use transform="matrix(0.11111111111111108,0,0,0.11111111111111108,52.44444444444443,0)" xlink:href="#p"/></g><path fill="#333" d="M125-100v72H85v-72H15v-39h70v-72h40v72h71v39h-71" id="P"/><use transform="matrix(0.11111111111111108,0,0,0.11111111111111108,0,0)" xlink:href="#P" id="l"/><g id="m"><use transform="matrix(0.11111111111111108,0,0,0.11111111111111108,0,0)" xlink:href="#u"/><use transform="matrix(0.11111111111111108,0,0,0.11111111111111108,11.111111111111107,0)" xlink:href="#r"/><use transform="matrix(0.11111111111111108,0,0,0.11111111111111108,39.88888888888887,0)" xlink:href="#y"/></g></defs></g></svg>