<svg xmlns="http://www.w3.org/2000/svg" xmlns:xlink="http://www.w3.org/1999/xlink" xmlns:lucid="lucid" width="1690.87" height="645"><g transform="translate(-200 -120)" lucid:page-tab-id="0_0"><path d="M320 554.3c0 27.6-22.4 50-50 50s-50-22.4-50-50c0-27.62 22.4-50 50-50s50 22.38 50 50zM1870.87 554.3c0 27.6-22.4 50-50 50-27.62 0-50-22.4-50-50 0-27.62 22.38-50 50-50 27.6 0 50 22.38 50 50zM704.86 407.38c2.84-1.7 7.44-1.7 10.28 0L954.86 551.2c2.84 1.7 2.84 4.47 0 6.18L715.14 701.2c-2.84 1.7-7.44 1.7-10.28 0L465.14 557.38c-2.84-1.7-2.84-4.47 0-6.18z" stroke="#5e5e5e" stroke-width="3" fill="#fff"/><use xlink:href="#a" transform="matrix(1,0,0,1,465,409.2913385826772) translate(120.67166666666672 127.15624999999999)"/><use xlink:href="#b" transform="matrix(1,0,0,1,465,409.2913385826772) translate(167.3938888888889 175.15625)"/><path d="M1040 146c0-3.3 2.7-6 6-6h488c3.3 0 6 2.7 6 6v268c0 3.3-2.7 6-6 6h-488c-3.3 0-6-2.7-6-6z" stroke="#5e5e5e" stroke-width="3" fill="#fff"/><use xlink:href="#c" transform="matrix(1,0,0,1,1052,152) translate(0.5555555555556282 136)"/><use xlink:href="#d" transform="matrix(1,0,0,1,1052,152) translate(155.77777777777783 136)"/><use xlink:href="#e" transform="matrix(1,0,0,1,1052,152) translate(222.33333333333337 136)"/><path d="M711 723.87l.7 2.64 1.8 1.8 2.63.7h452.72v2H715.87l-3.42-.92-2.53-2.53-.92-3.42v-19.16h2zM1750.86 555.3h-44.73l-2.64.7-1.8 1.78-.7 2.64v163.7l-.92 3.43-2.53 2.53-3.42.92h-392.28v-2h392.02l2.64-.7 1.8-1.8.7-2.63v-163.7l.92-3.43 2.53-2.53 3.42-.9h45z" stroke="#5e5e5e" stroke-width=".05" fill="#5e5e5e"/><path d="M710.23 704l.77-.12v1.1h-2v-1.12z" fill="#5e5e5e"/><path d="M710.23 703.97l.8-.12v1.17h-2.05v-1.2zm-1.2 1h1.95v-1.06l-.75.12-1.2-.14z" stroke="#5e5e5e" stroke-width=".05" fill="#5e5e5e"/><path d="M1766.13 554.3l-14.27 4.63v-9.27z" fill="#5e5e5e"/><path d="M1769.37 554.3l-18.5 6v-12.02zm-16.5 3.25l10.02-3.26-10.04-3.27z" stroke="#5e5e5e" stroke-width=".05" fill="#5e5e5e"/><use xlink:href="#f" transform="matrix(1,0,0,1,1168.8495276977092,706) translate(0 31.99999999999999)"/><path d="M1012.4 555.3h-53.13v-2h53.14zm278.6-6.88l-.92 3.42-2.53 2.53-3.42.92h-5.6v-2h5.34l2.64-.72 1.8-1.78.7-2.64V440h2z" stroke="#5e5e5e" stroke-width=".05" fill="#5e5e5e"/><path d="M959.3 555.3h-1l-.07-2h1.06z" fill="#5e5e5e"/><path d="M959.32 555.32h-1.04l-.08-2.05h1.12zm-1.07-2l.08 1.95h.94v-1.95z" stroke="#5e5e5e" stroke-width=".05" fill="#5e5e5e"/><path d="M1294.64 439h-9.28l4.64-14.26z" fill="#5e5e5e"/><path d="M1296 440h-12l6-18.5zm-9.26-2h6.52l-3.26-10.03z" stroke="#5e5e5e" stroke-width=".05" fill="#5e5e5e"/><use xlink:href="#g" transform="matrix(1,0,0,1,1012.414582821195,530.2913385826772) translate(0 31.99999999999999)"/><path d="M322.5 554.3h120.73" stroke="#5e5e5e" stroke-width="2" fill="none"/><path d="M322.53 555.3h-1.08l.05-1-.03-1h1.06z" stroke="#5e5e5e" stroke-width=".05" fill="#5e5e5e"/><path d="M458.5 554.3l-14.27 4.63v-9.27z" stroke="#5e5e5e" stroke-width="2" fill="#5e5e5e"/><path d="M1037.5 280H716c-3.3 0-6 2.7-6 6v100.1" stroke="#5e5e5e" stroke-width="2" fill="none"/><path d="M1038.5 281h-1.03v-2h1.03z" stroke="#5e5e5e" stroke-width=".05" fill="#5e5e5e"/><path d="M710 401.38l-4.64-14.27h9.28z" stroke="#5e5e5e" stroke-width="2" fill="#5e5e5e"/><defs><path fill="#333" d="M24 0v-248h195v40H76v63h132v40H76v65h150V0H24" id="h"/><path fill="#333" d="M182 0l-62-99L58 0H3l86-130-79-118h55l55 88 55-88h55l-75 118L237 0h-55" id="i"/><path fill="#333" d="M24-248c93 1 206-16 204 79-1 75-69 88-152 82V0H24v-248zm52 121c47 0 100 7 100-41 0-47-54-39-100-39v80" id="j"/><path fill="#333" d="M240-174c0 40-23 61-54 70L253 0h-59l-57-94H76V0H24v-248c93 4 217-23 216 74zM76-134c48-2 112 12 112-38 0-48-66-32-112-35v73" id="k"/><path fill="#333" d="M169-182c-1-43-94-46-97-3 18 66 151 10 154 114 3 95-165 93-204 36-6-8-10-19-12-30l50-8c3 46 112 56 116 5-17-69-150-10-154-114-4-87 153-88 188-35 5 8 8 18 10 28" id="l"/><path fill="#333" d="M101-320c28 0 65 44 74 0h23c0 29-10 51-39 51-28-1-66-45-74 0H61c2-28 9-52 40-51zM199 0l-22-63H83L61 0H9l90-248h61L250 0h-51zm-33-102l-36-108c-10 38-24 72-36 108h72" id="m"/><path fill="#333" d="M140-251c80 0 125 45 125 126S219 4 139 4C58 4 15-44 15-125s44-126 125-126zm-1 214c52 0 73-35 73-88 0-50-21-86-72-86-52 0-73 35-73 86s22 88 72 88" id="n"/><g id="a"><use transform="matrix(0.11111111111111108,0,0,0.11111111111111108,0,0)" xlink:href="#h"/><use transform="matrix(0.11111111111111108,0,0,0.11111111111111108,26.666666666666657,0)" xlink:href="#i"/><use transform="matrix(0.11111111111111108,0,0,0.11111111111111108,53.333333333333314,0)" xlink:href="#j"/><use transform="matrix(0.11111111111111108,0,0,0.11111111111111108,79.99999999999997,0)" xlink:href="#k"/><use transform="matrix(0.11111111111111108,0,0,0.11111111111111108,108.77777777777774,0)" xlink:href="#h"/><use transform="matrix(0.11111111111111108,0,0,0.11111111111111108,135.4444444444444,0)" xlink:href="#l"/><use transform="matrix(0.11111111111111108,0,0,0.11111111111111108,162.11111111111106,0)" xlink:href="#l"/><use transform="matrix(0.11111111111111108,0,0,0.11111111111111108,188.77777777777771,0)" xlink:href="#m"/><use transform="matrix(0.11111111111111108,0,0,0.11111111111111108,217.5555555555555,0)" xlink:href="#n"/></g><path fill="#333" d="M24 0v-248h52v208h133V0H24" id="o"/><path fill="#333" d="M110-269v-5l44-45h46v8l-60 42h-30zm30 18c80 0 125 45 125 126S219 4 139 4C58 4 15-44 15-125s44-126 125-126zm-1 214c52 0 73-35 73-88 0-50-21-86-72-86-52 0-73 35-73 86s22 88 72 88" id="p"/><path fill="#333" d="M67-125c0 54 23 88 75 88 28 0 53-7 68-21v-34h-60v-39h108v91C232-14 192 4 140 4 58 4 20-42 15-125 8-236 126-280 215-234c19 10 29 26 37 47l-47 15c-11-23-29-39-63-39-53 1-75 33-75 86" id="q"/><path fill="#333" d="M24 0v-248h52V0H24" id="r"/><path fill="#333" d="M67-125c0 53 21 87 73 88 37 1 54-22 65-47l45 17C233-25 199 4 140 4 58 4 20-42 15-125 8-235 124-281 211-232c18 10 29 29 36 50l-46 12c-8-25-30-41-62-41-52 0-71 34-72 86" id="s"/><path fill="#333" d="M199 0l-22-63H83L61 0H9l90-248h61L250 0h-51zm-33-102l-36-108c-10 38-24 72-36 108h72" id="t"/><g id="b"><use transform="matrix(0.11111111111111108,0,0,0.11111111111111108,0,0)" xlink:href="#o"/><use transform="matrix(0.11111111111111108,0,0,0.11111111111111108,24.333333333333325,0)" xlink:href="#p"/><use transform="matrix(0.11111111111111108,0,0,0.11111111111111108,55.44444444444443,0)" xlink:href="#q"/><use transform="matrix(0.11111111111111108,0,0,0.11111111111111108,86.55555555555553,0)" xlink:href="#r"/><use transform="matrix(0.11111111111111108,0,0,0.11111111111111108,97.66666666666663,0)" xlink:href="#s"/><use transform="matrix(0.11111111111111108,0,0,0.11111111111111108,126.4444444444444,0)" xlink:href="#t"/></g><path fill="#333" d="M182-130c37 4 62 22 62 59C244 23 116-4 24 0v-248c84 5 203-23 205 63 0 31-19 50-47 55zM76-148c40-3 101 13 101-30 0-44-60-28-101-31v61zm0 110c48-3 116 14 116-37 0-48-69-32-116-35v72" id="u"/><g id="c"><use transform="matrix(0.11111111111111108,0,0,0.11111111111111108,0,0)" xlink:href="#u"/><use transform="matrix(0.11111111111111108,0,0,0.11111111111111108,28.777777777777768,0)" xlink:href="#o"/><use transform="matrix(0.11111111111111108,0,0,0.11111111111111108,53.11111111111109,0)" xlink:href="#n"/><use transform="matrix(0.11111111111111108,0,0,0.11111111111111108,84.2222222222222,0)" xlink:href="#s"/><use transform="matrix(0.11111111111111108,0,0,0.11111111111111108,112.99999999999997,0)" xlink:href="#n"/></g><path fill="#333" d="M24-248c120-7 223 5 221 122C244-46 201 0 124 0H24v-248zM76-40c74 7 117-18 117-86 0-67-45-88-117-82v168" id="v"/><g id="d"><use transform="matrix(0.11111111111111108,0,0,0.11111111111111108,0,0)" xlink:href="#v"/><use transform="matrix(0.11111111111111108,0,0,0.11111111111111108,28.777777777777768,0)" xlink:href="#h"/></g><g id="e"><use transform="matrix(0.11111111111111108,0,0,0.11111111111111108,0,0)" xlink:href="#j"/><use transform="matrix(0.11111111111111108,0,0,0.11111111111111108,26.666666666666657,0)" xlink:href="#k"/><use transform="matrix(0.11111111111111108,0,0,0.11111111111111108,55.44444444444443,0)" xlink:href="#n"/><use transform="matrix(0.11111111111111108,0,0,0.11111111111111108,86.55555555555553,0)" xlink:href="#s"/><use transform="matrix(0.11111111111111108,0,0,0.11111111111111108,115.3333333333333,0)" xlink:href="#h"/><use transform="matrix(0.11111111111111108,0,0,0.11111111111111108,141.99999999999994,0)" xlink:href="#l"/><use transform="matrix(0.11111111111111108,0,0,0.11111111111111108,168.6666666666666,0)" xlink:href="#l"/><use transform="matrix(0.11111111111111108,0,0,0.11111111111111108,195.33333333333326,0)" xlink:href="#n"/><use transform="matrix(0.11111111111111108,0,0,0.11111111111111108,226.44444444444434,0)" xlink:href="#l"/></g><path fill="#e81313" d="M76-208v77h127v40H76V0H24v-248h183v40H76" id="w"/><path fill="#e81313" d="M199 0l-22-63H83L61 0H9l90-248h61L250 0h-51zm-33-102l-36-108c-10 38-24 72-36 108h72" id="x"/><path fill="#e81313" d="M24 0v-248h52v208h133V0H24" id="y"/><path fill="#e81313" d="M169-182c-1-43-94-46-97-3 18 66 151 10 154 114 3 95-165 93-204 36-6-8-10-19-12-30l50-8c3 46 112 56 116 5-17-69-150-10-154-114-4-87 153-88 188-35 5 8 8 18 10 28" id="z"/><path fill="#e81313" d="M140-251c80 0 125 45 125 126S219 4 139 4C58 4 15-44 15-125s44-126 125-126zm-1 214c52 0 73-35 73-88 0-50-21-86-72-86-52 0-73 35-73 86s22 88 72 88" id="A"/><g id="f"><use transform="matrix(0.11111111111111108,0,0,0.11111111111111108,0,0)" xlink:href="#w"/><use transform="matrix(0.11111111111111108,0,0,0.11111111111111108,22.111111111111104,0)" xlink:href="#x"/><use transform="matrix(0.11111111111111108,0,0,0.11111111111111108,50.88888888888887,0)" xlink:href="#y"/><use transform="matrix(0.11111111111111108,0,0,0.11111111111111108,75.2222222222222,0)" xlink:href="#z"/><use transform="matrix(0.11111111111111108,0,0,0.11111111111111108,101.88888888888886,0)" xlink:href="#A"/></g><path fill="#008a0e" d="M147 0H94L2-248h55l64 206c17-72 42-137 63-206h54" id="B"/><path fill="#008a0e" d="M24 0v-248h195v40H76v63h132v40H76v65h150V0H24" id="C"/><path fill="#008a0e" d="M240-174c0 40-23 61-54 70L253 0h-59l-57-94H76V0H24v-248c93 4 217-23 216 74zM76-134c48-2 112 12 112-38 0-48-66-32-112-35v73" id="D"/><path fill="#008a0e" d="M24-248c120-7 223 5 221 122C244-46 201 0 124 0H24v-248zM76-40c74 7 117-18 117-86 0-67-45-88-117-82v168" id="E"/><path fill="#008a0e" d="M199 0l-22-63H83L61 0H9l90-248h61L250 0h-51zm-33-102l-36-108c-10 38-24 72-36 108h72" id="F"/><path fill="#008a0e" d="M24 0v-248h52V0H24" id="G"/><path fill="#008a0e" d="M140-251c80 0 125 45 125 126S219 4 139 4C58 4 15-44 15-125s44-126 125-126zm-1 214c52 0 73-35 73-88 0-50-21-86-72-86-52 0-73 35-73 86s22 88 72 88" id="H"/><g id="g"><use transform="matrix(0.11111111111111108,0,0,0.11111111111111108,0,0)" xlink:href="#B"/><use transform="matrix(0.11111111111111108,0,0,0.11111111111111108,26.666666666666657,0)" xlink:href="#C"/><use transform="matrix(0.11111111111111108,0,0,0.11111111111111108,53.333333333333314,0)" xlink:href="#D"/><use transform="matrix(0.11111111111111108,0,0,0.11111111111111108,82.11111111111109,0)" xlink:href="#E"/><use transform="matrix(0.11111111111111108,0,0,0.11111111111111108,110.88888888888886,0)" xlink:href="#F"/><use transform="matrix(0.11111111111111108,0,0,0.11111111111111108,139.66666666666663,0)" xlink:href="#E"/><use transform="matrix(0.11111111111111108,0,0,0.11111111111111108,168.4444444444444,0)" xlink:href="#C"/><use transform="matrix(0.11111111111111108,0,0,0.11111111111111108,195.11111111111106,0)" xlink:href="#G"/><use transform="matrix(0.11111111111111108,0,0,0.11111111111111108,206.22222222222217,0)" xlink:href="#D"/><use transform="matrix(0.11111111111111108,0,0,0.11111111111111108,234.99999999999991,0)" xlink:href="#H"/></g></defs></g></svg>